<?xml version="1.0" encoding="UTF-8"?>
<svg width="91.44mm" height="91.44mm" clip-rule="evenodd" fill-rule="evenodd" image-rendering="optimizeQuality" shape-rendering="geometricPrecision" text-rendering="geometricPrecision" version="1.1" viewBox="0 0 9144 9144" xmlns="http://www.w3.org/2000/svg">
 <defs>
  <style type="text/css">.fil2 {fill:#FEFEFE;fill-rule:nonzero} .fil1 {fill:white;fill-rule:nonzero} .fil0 {fill:url(#a)}</style>
  <linearGradient id="a" x1="8595.4" x2="548.64" y1="8595.4" y2="548.63" gradientUnits="userSpaceOnUse">
   <stop stop-color="#48CFAE" offset="0"/>
   <stop stop-color="#4FC0E8" offset="1"/>
  </linearGradient>
 </defs>
 <polygon class="fil0" points="0 0 9144 0 9144 9144 0 9144"/>
 <path class="fil1" d="m6366 3719c-49 0-88-39-88-88 0-48 39-88 88-88s88 40 88 88c0 49-39 88-88 88z"/>
 <path class="fil2" d="m2277 6437h4590v-3301h-1270c-39 0-72-26-84-61l-145-368h-1592l-147 373c-14 34-47 56-82 56h-1270v3301zm4678 177h-4766c-49 0-89-40-89-89v-3477c0-49 40-89 89-89h1298l145-368c12-35 45-61 84-61h1712c35 1 68 22 82 57l147 372h1298c49 0 89 40 89 89v3477c0 49-40 89-89 89z"/>
 <path class="fil2" d="m4572 3700c300 0 572 121 769 318 196 197 318 468 318 769 0 300-122 571-318 768-197 197-469 319-769 319s-572-122-769-319c-196-197-318-468-318-768 0-301 122-572 318-769 197-197 469-318 769-318zm644 443c-165-165-393-267-644-267s-479 102-644 267c-165 164-267 392-267 644 0 251 102 479 267 643 165 165 393 267 644 267s479-102 644-267c165-164 267-392 267-643 0-252-102-480-267-644z"/>
</svg>
